<svg xmlns="http://www.w3.org/2000/svg" xmlns:xlink="http://www.w3.org/1999/xlink" width="2400" zoomAndPan="magnify" viewBox="0 0 1800 1012.49997" height="1350" preserveAspectRatio="xMidYMid meet" version="1.0"><defs><clipPath id="9d39ea6d16"><path d="M 0.445312 0 L 1799.554688 0 L 1799.554688 1012 L 0.445312 1012 Z M 0.445312 0 " clip-rule="nonzero"/></clipPath><clipPath id="a4cfafc895"><path d="M 0.445312 0 L 608 0 L 608 1012 L 0.445312 1012 Z M 0.445312 0 " clip-rule="nonzero"/></clipPath><clipPath id="25a4bad34e"><path d="M -56.4375 -235.664062 L 620.730469 596.304688 L -264.144531 1316.535156 L -941.3125 484.566406 Z M -56.4375 -235.664062 " clip-rule="nonzero"/></clipPath><clipPath id="16e13cc55b"><path d="M 0.445312 0 L 308 0 L 308 1012 L 0.445312 1012 Z M 0.445312 0 " clip-rule="nonzero"/></clipPath><clipPath id="3b0344d77d"><path d="M -56.4375 -235.664062 L 620.730469 596.304688 L -264.144531 1316.535156 L -941.3125 484.566406 Z M -56.4375 -235.664062 " clip-rule="nonzero"/></clipPath><clipPath id="e3ea497bd2"><path d="M -264.285156 1316.273438 L -941.453125 484.300781 L -56.578125 -235.925781 L 620.589844 596.042969 Z M -264.285156 1316.273438 " clip-rule="nonzero"/></clipPath><clipPath id="b02e3cfc41"><rect x="0" width="608" y="0" height="1012"/></clipPath><clipPath id="e23b1271e0"><path d="M 36 0 L 1799.554688 0 L 1799.554688 400 L 36 400 Z M 36 0 " clip-rule="nonzero"/></clipPath><clipPath id="b0a5b07a37"><path d="M -131.910156 -220.511719 L 1135.535156 -1270.992188 L 2073.125 -139.753906 L 805.675781 910.726562 Z M -131.910156 -220.511719 " clip-rule="nonzero"/></clipPath><clipPath id="54695202ec"><path d="M -131.910156 -220.511719 L 1135.535156 -1270.992188 L 2073.125 -139.753906 L 805.675781 910.726562 Z M -131.910156 -220.511719 " clip-rule="nonzero"/></clipPath></defs><g clip-path="url(#9d39ea6d16)"><path fill="#ffffff" d="M 0.445312 0 L 1799.554688 0 L 1799.554688 1012 L 0.445312 1012 Z M 0.445312 0 " fill-opacity="1" fill-rule="nonzero"/><path fill="#2f7a7f" d="M 0.445312 0 L 1799.554688 0 L 1799.554688 1012 L 0.445312 1012 Z M 0.445312 0 " fill-opacity="1" fill-rule="nonzero"/></g><g clip-path="url(#a4cfafc895)"><g clip-path="url(#25a4bad34e)"><g transform="matrix(1, 0, 0, 1, 0.000000000000000056, 0)"><g clip-path="url(#b02e3cfc41)"><g clip-path="url(#16e13cc55b)"><g clip-path="url(#3b0344d77d)"><g clip-path="url(#e3ea497bd2)"><path fill="#ffffff" d="M -284.257812 -42.191406 C -353.652344 21.550781 -353.949219 112.21875 -322.351562 197.488281 C -292.242188 279.4375 -264.820312 346.941406 -291.628906 434.390625 C -313.664062 506.15625 -358.347656 567.929688 -392.414062 633.460938 C -443.09375 730.964844 -476.242188 844.4375 -446.542969 956.359375 C -392.890625 1158.265625 -164.902344 1230.667969 -8 1105.378906 C 75.726562 1038.441406 117.769531 932.546875 130.28125 826.792969 C 139.238281 750.851562 140.003906 684.90625 187.609375 622.265625 C 221.339844 577.875 264.90625 539.996094 289.015625 488.613281 C 337.882812 384.421875 279.292969 243.695312 226.496094 147.25 C 166.933594 38.769531 61.308594 -5.910156 -45.566406 -51.386719 C -45.714844 -51.566406 -45.714844 -51.566406 -45.714844 -51.566406 C -121.257812 -100.164062 -217.628906 -103.378906 -284.257812 -42.191406 Z M -284.257812 -42.191406 " fill-opacity="1" fill-rule="nonzero"/></g></g></g></g></g></g></g><g clip-path="url(#e23b1271e0)"><g clip-path="url(#b0a5b07a37)"><g clip-path="url(#54695202ec)"><path fill="#ffffff" d="M 1829.957031 -420.621094 C 1866.183594 -354.003906 1880.8125 -274.226562 1883.070312 -199.085938 C 1884.082031 -165.367188 1882.425781 -131.042969 1874.464844 -98.152344 C 1867.105469 -67.734375 1854.0625 -38.785156 1838.964844 -11.484375 C 1802.449219 54.539062 1752.082031 112.996094 1697.164062 164.359375 C 1640.285156 217.554688 1576.324219 264.660156 1506.332031 299.15625 C 1448.230469 327.792969 1382.332031 349.742188 1316.765625 342.289062 C 1264.460938 336.34375 1213.6875 320.144531 1160.949219 317.503906 C 1108.53125 314.878906 1054.992188 323.269531 1004.355469 336.367188 C 961.097656 347.554688 919.125 362.972656 876.292969 375.578125 C 831.582031 388.734375 785.984375 397.675781 739.300781 399.0625 C 689.71875 400.535156 640.78125 395.195312 595.640625 373.539062 C 554.550781 353.828125 519.082031 324.351562 487.835938 291.484375 C 454.582031 256.511719 427.191406 217.332031 398.332031 178.835938 C 381.820312 156.808594 362.660156 137.9375 335.25 131.007812 C 312.257812 125.195312 288.027344 126.421875 264.527344 126.480469 C 223.933594 126.578125 185.257812 120.101562 150.078125 98.824219 C 118.433594 79.691406 93.285156 51.375 75.144531 19.371094 C 35.597656 -50.40625 27.945312 -137.082031 46.835938 -214.296875 C 56.847656 -255.230469 74.816406 -294.882812 94.511719 -332 C 113.492188 -367.761719 136.21875 -401.410156 162.238281 -432.425781 C 223.171875 -505.074219 299.449219 -563.394531 375.648438 -619.007812 C 415.617188 -645.164062 452.5625 -675.332031 486.003906 -709.445312 C 510.976562 -734.917969 533.539062 -762.691406 558.914062 -787.769531 C 582.375 -810.957031 608.683594 -829.214844 639.773438 -840.605469 C 684.296875 -856.917969 730.847656 -860.710938 777.621094 -865.492188 C 800.855469 -867.863281 824.035156 -870.976562 846.75 -876.535156 C 870.515625 -882.355469 893.257812 -891.324219 915.894531 -900.480469 C 957.484375 -917.292969 998.460938 -935.695312 1040.730469 -950.792969 C 1079.898438 -964.785156 1120.71875 -976.425781 1162.523438 -977.941406 C 1203.515625 -979.429688 1244.6875 -969.796875 1278.527344 -945.941406 C 1317.675781 -918.347656 1341.59375 -875.226562 1356.050781 -830.46875 C 1372.429688 -779.753906 1378.6875 -726.328125 1383.398438 -673.457031 C 1387.40625 -628.511719 1387.558594 -578.410156 1414.527344 -539.902344 C 1437.519531 -507.070312 1476.105469 -494.308594 1514.171875 -488.667969 C 1539.660156 -484.890625 1566.503906 -482.414062 1592.269531 -483.671875 C 1617.066406 -484.886719 1641.324219 -490.847656 1665.597656 -495.617188 C 1700.867188 -502.550781 1737.308594 -507.855469 1769.691406 -488.949219 C 1796.308594 -473.410156 1815.480469 -447.246094 1829.957031 -420.621094 Z M 1829.957031 -420.621094 " fill-opacity="1" fill-rule="nonzero"/></g></g></g></svg>