<svg xmlns="http://www.w3.org/2000/svg" xmlns:xlink="http://www.w3.org/1999/xlink" width="2400" zoomAndPan="magnify" viewBox="0 0 1800 1012.49997" height="1350" preserveAspectRatio="xMidYMid meet" version="1.0"><defs><filter x="0%" y="0%" width="100%" height="100%" id="93d8fd46c3"><feColorMatrix values="0 0 0 0 1 0 0 0 0 1 0 0 0 0 1 0 0 0 1 0" color-interpolation-filters="sRGB"/></filter><clipPath id="a88d222279"><path d="M 0.445312 0 L 1799.554688 0 L 1799.554688 1012 L 0.445312 1012 Z M 0.445312 0 " clip-rule="nonzero"/></clipPath><clipPath id="39402609d1"><path d="M 176 0 L 1799.554688 0 L 1799.554688 988 L 176 988 Z M 176 0 " clip-rule="nonzero"/></clipPath><clipPath id="24865c2cf3"><path d="M 200.523438 -64.992188 L 1876.238281 -25.851562 L 1852.574219 987.371094 L 176.859375 948.230469 Z M 200.523438 -64.992188 " clip-rule="nonzero"/></clipPath><clipPath id="006b288d0e"><path d="M 831 0 L 1623.554688 0 L 1623.554688 594 L 831 594 Z M 831 0 " clip-rule="nonzero"/></clipPath><clipPath id="9bebe1168e"><path d="M 24.523438 -64.992188 L 1700.238281 -25.851562 L 1676.574219 987.371094 L 0.859375 948.230469 Z M 24.523438 -64.992188 " clip-rule="nonzero"/></clipPath><clipPath id="591d7c5946"><path d="M 1676.875 987.449219 L 1.160156 948.308594 L 24.828125 -64.914062 L 1700.542969 -25.773438 Z M 1676.875 987.449219 " clip-rule="nonzero"/></clipPath><clipPath id="75338073a4"><path d="M 838 472 L 1623.554688 472 L 1623.554688 953 L 838 953 Z M 838 472 " clip-rule="nonzero"/></clipPath><clipPath id="1bc0b2b865"><path d="M 24.523438 -64.992188 L 1700.238281 -25.851562 L 1676.574219 987.371094 L 0.859375 948.230469 Z M 24.523438 -64.992188 " clip-rule="nonzero"/></clipPath><clipPath id="95696c9268"><path d="M 1676.875 987.449219 L 1.160156 948.308594 L 24.828125 -64.914062 L 1700.542969 -25.773438 Z M 1676.875 987.449219 " clip-rule="nonzero"/></clipPath><clipPath id="67822bf6a6"><path d="M 459 0 L 999 0 L 999 568 L 459 568 Z M 459 0 " clip-rule="nonzero"/></clipPath><clipPath id="17a43193e1"><path d="M 24.523438 -64.992188 L 1700.238281 -25.851562 L 1676.574219 987.371094 L 0.859375 948.230469 Z M 24.523438 -64.992188 " clip-rule="nonzero"/></clipPath><clipPath id="a0c61c2300"><path d="M 1676.875 987.449219 L 1.160156 948.308594 L 24.828125 -64.914062 L 1700.542969 -25.773438 Z M 1676.875 987.449219 " clip-rule="nonzero"/></clipPath><clipPath id="611f6bbc3e"><path d="M 24 0 L 575 0 L 575 308 L 24 308 Z M 24 0 " clip-rule="nonzero"/></clipPath><clipPath id="c580d3ec88"><path d="M 24.523438 -64.992188 L 1700.238281 -25.851562 L 1676.574219 987.371094 L 0.859375 948.230469 Z M 24.523438 -64.992188 " clip-rule="nonzero"/></clipPath><clipPath id="33d69addba"><path d="M 1676.875 987.449219 L 1.160156 948.308594 L 24.828125 -64.914062 L 1700.542969 -25.773438 Z M 1676.875 987.449219 " clip-rule="nonzero"/></clipPath><clipPath id="fb2be5f444"><path d="M 601 0 L 745 0 L 745 19 L 601 19 Z M 601 0 " clip-rule="nonzero"/></clipPath><clipPath id="9ea733b813"><path d="M 24.523438 -64.992188 L 1700.238281 -25.851562 L 1676.574219 987.371094 L 0.859375 948.230469 Z M 24.523438 -64.992188 " clip-rule="nonzero"/></clipPath><clipPath id="7d1453ae67"><path d="M 1676.875 987.449219 L 1.160156 948.308594 L 24.828125 -64.914062 L 1700.542969 -25.773438 Z M 1676.875 987.449219 " clip-rule="nonzero"/></clipPath><clipPath id="2e48a9d395"><path d="M 1182 0 L 1293 0 L 1293 134 L 1182 134 Z M 1182 0 " clip-rule="nonzero"/></clipPath><clipPath id="7ee5acf59e"><path d="M 24.523438 -64.992188 L 1700.238281 -25.851562 L 1676.574219 987.371094 L 0.859375 948.230469 Z M 24.523438 -64.992188 " clip-rule="nonzero"/></clipPath><clipPath id="55c37d6067"><path d="M 1676.875 987.449219 L 1.160156 948.308594 L 24.828125 -64.914062 L 1700.542969 -25.773438 Z M 1676.875 987.449219 " clip-rule="nonzero"/></clipPath><clipPath id="76c27f6631"><path d="M 1566 810 L 1623.554688 810 L 1623.554688 987 L 1566 987 Z M 1566 810 " clip-rule="nonzero"/></clipPath><clipPath id="6021bc3f67"><path d="M 24.523438 -64.992188 L 1700.238281 -25.851562 L 1676.574219 987.371094 L 0.859375 948.230469 Z M 24.523438 -64.992188 " clip-rule="nonzero"/></clipPath><clipPath id="6429eeb90d"><path d="M 1676.875 987.449219 L 1.160156 948.308594 L 24.828125 -64.914062 L 1700.542969 -25.773438 Z M 1676.875 987.449219 " clip-rule="nonzero"/></clipPath><clipPath id="4123fc61d8"><rect x="0" width="1624" y="0" height="988"/></clipPath><mask id="df14dfe58e"><g filter="url(#93d8fd46c3)"><rect x="-180" width="2160" fill="#000000" y="-101.249997" height="1214.999964" fill-opacity="0.28"/></g></mask><clipPath id="860117a465"><path d="M 64 676 L 89 676 L 89 699.535156 L 64 699.535156 Z M 64 676 " clip-rule="nonzero"/></clipPath><clipPath id="614bef362c"><path d="M 0.242188 651 L 23 651 L 23 675 L 0.242188 675 Z M 0.242188 651 " clip-rule="nonzero"/></clipPath><clipPath id="570196fcb8"><path d="M 666 9 L 712.390625 9 L 712.390625 43 L 666 43 Z M 666 9 " clip-rule="nonzero"/></clipPath><clipPath id="8c5b4418e0"><path d="M 590 0 L 645 0 L 645 22 L 590 22 Z M 590 0 " clip-rule="nonzero"/></clipPath><clipPath id="3f60e63977"><rect x="0" width="713" y="0" height="700"/></clipPath></defs><g clip-path="url(#a88d222279)"><path fill="#ffffff" d="M 0.445312 0 L 1799.554688 0 L 1799.554688 1012 L 0.445312 1012 Z M 0.445312 0 " fill-opacity="1" fill-rule="nonzero"/><path fill="#ffffff" d="M 0.445312 0 L 1799.554688 0 L 1799.554688 1012 L 0.445312 1012 Z M 0.445312 0 " fill-opacity="1" fill-rule="nonzero"/></g><g clip-path="url(#39402609d1)"><g clip-path="url(#24865c2cf3)"><g transform="matrix(1, 0, 0, 1, 176, 0)"><g clip-path="url(#4123fc61d8)"><g clip-path="url(#006b288d0e)"><g clip-path="url(#9bebe1168e)"><g clip-path="url(#591d7c5946)"><path fill="#d66f29" d="M 851.996094 288.300781 C 905.664062 231.464844 1027.722656 281.078125 1064.105469 211.882812 C 1091.382812 160.015625 1037.410156 105.53125 1000.957031 59.640625 C 977.339844 29.914062 960.027344 -6.09375 952.394531 -43.324219 L 1182.933594 -37.9375 C 1182.8125 -37.132812 1182.683594 -36.339844 1182.554688 -35.546875 C 1168.578125 49.746094 1121.59375 109.304688 1150.136719 144.390625 C 1166.425781 164.414062 1200.234375 167.769531 1205.824219 168.234375 C 1205.824219 168.234375 1236.558594 172.527344 1264.851562 154.585938 C 1323.609375 117.332031 1319.8125 40.222656 1322.023438 -34.695312 L 1639.40625 -27.28125 C 1607.679688 -8.800781 1591.34375 26.617188 1598.328125 58.667969 C 1607.015625 98.523438 1650.515625 127.40625 1697 118.125 L 1686.703125 559.078125 C 1586.941406 462.628906 1446.316406 373.109375 1322.542969 432.476562 C 1234.15625 474.871094 1179.71875 585.605469 1081.996094 593.261719 C 1000.175781 599.675781 934.867188 529.242188 884.964844 464.085938 C 845.328125 412.34375 807.253906 335.699219 851.996094 288.300781 Z M 851.996094 288.300781 " fill-opacity="1" fill-rule="nonzero"/></g></g></g><g clip-path="url(#75338073a4)"><g clip-path="url(#1bc0b2b865)"><g clip-path="url(#95696c9268)"><path fill="#2f7a7f" d="M 839.59375 593.746094 C 846.925781 566.136719 882.875 556.066406 910.433594 563.582031 C 937.996094 571.097656 960.664062 590.285156 986.1875 603.109375 C 1041.335938 630.820312 1106.484375 627.550781 1167.832031 620.757812 C 1196.480469 617.589844 1226.15625 613.402344 1250.28125 597.644531 C 1297.410156 566.867188 1314.070312 498.242188 1366.699219 478.277344 C 1409.519531 462.03125 1456.25 485.636719 1495.621094 509.027344 C 1531.597656 530.386719 1567.851562 552.609375 1596.019531 583.550781 C 1627.929688 618.582031 1651.417969 659.148438 1683.550781 694 L 1680.339844 831.488281 C 1630.925781 813.285156 1616.332031 772.320312 1579.226562 776.988281 C 1561.625 779.199219 1539.628906 791.59375 1534.601562 809.277344 C 1525.300781 842 1576.015625 885.859375 1577.6875 927.554688 C 1577.867188 932.027344 1578.140625 942.574219 1571.347656 948.625 C 1566.039062 953.355469 1558.113281 953.296875 1551.019531 952.703125 C 1512.207031 949.457031 1470.066406 935.175781 1451.9375 900.703125 C 1436.816406 871.960938 1442.378906 837.339844 1444.609375 804.941406 C 1446.832031 772.53125 1442.882812 735.085938 1416.515625 716.117188 C 1399.265625 703.710938 1376.652344 702.523438 1355.40625 701.785156 C 1292.273438 699.589844 1228.210938 697.484375 1166.785156 712.253906 C 1134.015625 720.132812 1102.351562 732.746094 1069.027344 737.835938 C 988.035156 750.207031 901.476562 713.136719 854.558594 645.96875 C 843.84375 630.636719 834.789062 611.835938 839.59375 593.746094 Z M 839.59375 593.746094 " fill-opacity="1" fill-rule="nonzero"/></g></g></g><g clip-path="url(#67822bf6a6)"><g clip-path="url(#17a43193e1)"><g clip-path="url(#a0c61c2300)"><path fill="#4da3a9" d="M 462.535156 50.851562 C 463.289062 45.769531 464.089844 40.519531 466.777344 36.136719 C 469.832031 31.140625 475.003906 27.824219 480.28125 25.28125 C 501.707031 14.945312 526.480469 14.90625 550.265625 15.433594 C 598.988281 16.5 651.285156 20.363281 689.257812 50.910156 C 699.511719 59.152344 708.351562 69.109375 719.1875 76.566406 C 730.019531 84.023438 743.777344 88.832031 756.359375 85 C 781.828125 77.25 788.765625 33.480469 789.703125 27.4375 C 792.910156 6.863281 789.617188 -9.882812 792.117188 -47.054688 L 895.957031 -44.628906 C 900.554688 -12.582031 902.230469 33.542969 927.984375 79.058594 C 959.464844 134.703125 1006.371094 153.152344 997.796875 175.851562 C 992.777344 189.128906 974.136719 189.746094 944.621094 197.714844 C 916.644531 205.261719 826.371094 229.625 798.429688 285.773438 C 775.554688 331.734375 796.09375 395.71875 814.480469 429.359375 C 833.675781 464.5 855.890625 476.378906 855.144531 507.921875 C 854.582031 531.617188 841.167969 561.765625 818.703125 567.03125 C 804.375 570.390625 791.011719 562.664062 786.363281 559.671875 C 769.695312 548.972656 760.183594 530.316406 751.566406 512.472656 C 742.957031 494.640625 733.777344 475.894531 717.4375 464.707031 C 702.078125 454.1875 682.574219 451.882812 665.9375 443.535156 C 631.460938 426.242188 614.660156 385.554688 611.875 347.085938 C 610.796875 332.230469 611.46875 316.828125 617.492188 303.199219 C 626.394531 283.105469 646.03125 268.847656 653.0625 248.027344 C 660.875 224.886719 650.550781 198.417969 632.652344 181.792969 C 614.761719 165.167969 590.625 156.902344 566.65625 152.207031 C 542.6875 147.507812 518.148438 145.921875 494.371094 140.332031 C 486.425781 138.460938 478.265625 135.976562 472.300781 130.40625 C 467.269531 125.707031 464.273438 119.210938 462.34375 112.605469 C 456.53125 92.679688 459.511719 71.382812 462.535156 50.851562 Z M 462.535156 50.851562 " fill-opacity="1" fill-rule="nonzero"/></g></g></g><g clip-path="url(#611f6bbc3e)"><g clip-path="url(#c580d3ec88)"><g clip-path="url(#33d69addba)"><path fill="#d66f29" d="M 392.800781 37.503906 C 387.539062 76.039062 406.882812 113.917969 407.90625 116.335938 C 418.417969 141.105469 436.726562 163.398438 461.355469 174.226562 C 476.335938 180.808594 492.832031 182.910156 508.542969 187.457031 C 533.285156 194.628906 557.265625 209.21875 568.800781 232.25 C 580.339844 255.277344 575.460938 287.355469 553.628906 301.019531 C 536.300781 311.863281 513.097656 308.847656 495.199219 298.96875 C 477.300781 289.089844 463.476562 273.386719 449.722656 258.261719 C 425.234375 231.296875 399.589844 204.980469 369.457031 184.539062 C 339.320312 164.085938 304.175781 149.683594 267.765625 148.90625 C 255.976562 148.652344 243.460938 149.667969 233.121094 144.007812 C 218.191406 135.832031 213.1875 116.621094 213.648438 99.617188 C 214.109375 82.605469 218.492188 65.574219 216.015625 48.738281 C 212.328125 23.589844 193.429688 2.621094 170.996094 -9.328125 C 148.574219 -21.273438 122.871094 -25.449219 97.578125 -27.902344 C 78.054688 -29.796875 57.167969 -31.238281 41.609375 -43.1875 C 34.097656 -48.953125 28.6875 -56.5 24.714844 -64.988281 L 504.710938 -53.773438 C 481.933594 -29.382812 449.871094 -9.097656 430.144531 -3.175781 C 425.472656 -1.777344 410.039062 2.320312 400.5 15.914062 C 395.890625 22.5 393.886719 29.554688 392.800781 37.503906 Z M 392.800781 37.503906 " fill-opacity="1" fill-rule="nonzero"/></g></g></g><g clip-path="url(#fb2be5f444)"><g clip-path="url(#9ea733b813)"><g clip-path="url(#7d1453ae67)"><path fill="#2f7a7f" d="M 601.992188 -51.503906 L 744.621094 -48.171875 C 744.617188 -45.894531 744.554688 -43.617188 744.484375 -41.363281 C 743.996094 -25.15625 743.511719 -8.9375 743.03125 7.269531 C 742.914062 11.339844 742.300781 16.191406 738.65625 17.996094 C 733.1875 20.691406 728.074219 14.03125 724.9375 8.796875 C 716.421875 -5.429688 702.585938 -16.386719 686.789062 -21.421875 C 671.871094 -26.179688 655.84375 -25.714844 640.402344 -28.335938 C 625.113281 -30.925781 609.046875 -37.722656 601.992188 -51.503906 Z M 601.992188 -51.503906 " fill-opacity="1" fill-rule="nonzero"/></g></g></g><g clip-path="url(#2e48a9d395)"><g clip-path="url(#7ee5acf59e)"><g clip-path="url(#55c37d6067)"><path fill="#95b2b2" d="M 1186.671875 70.082031 C 1194.835938 27.261719 1209.84375 25.578125 1213.632812 -11.914062 C 1214.488281 -20.382812 1214.824219 -28.878906 1214.511719 -37.191406 L 1288.800781 -35.453125 C 1294.738281 -8.058594 1291.519531 16.535156 1289.628906 31.015625 C 1285.683594 61.097656 1281.480469 93.199219 1255.488281 114.300781 C 1236.523438 129.695312 1204.722656 140.230469 1190.183594 127.691406 C 1177.738281 116.949219 1182.289062 93.074219 1186.671875 70.082031 Z M 1186.671875 70.082031 " fill-opacity="1" fill-rule="nonzero"/></g></g></g><g clip-path="url(#76c27f6631)"><g clip-path="url(#6021bc3f67)"><g clip-path="url(#6429eeb90d)"><path fill="#95b2b2" d="M 1567.367188 830.375 C 1568.773438 822.488281 1574.066406 813.839844 1581.671875 811.308594 C 1590.917969 808.230469 1599.710938 815.476562 1624.535156 835.40625 C 1650.804688 856.511719 1668.171875 870.433594 1679.234375 878.761719 L 1676.808594 982.613281 C 1651.597656 992.769531 1619.570312 984.074219 1606.730469 964.808594 C 1592.042969 942.785156 1614.726562 925.402344 1601.980469 891.242188 C 1590.449219 860.34375 1563.496094 852.101562 1567.367188 830.375 Z M 1567.367188 830.375 " fill-opacity="1" fill-rule="nonzero"/></g></g></g></g></g></g></g><g mask="url(#df14dfe58e)"><g transform="matrix(1, 0, 0, 1, 1042, 0)"><g clip-path="url(#3f60e63977)"><path fill="#ffffff" d="M 139.4375 650.226562 C 131.019531 641.726562 112.957031 652.550781 106.4375 658.929688 C 102.304688 662.96875 97.5625 667.929688 94.03125 672.355469 C 90.792969 676.417969 93.347656 682.46875 95.296875 686.902344 C 97.808594 692.609375 101.691406 690.558594 107.050781 689.039062 C 113.21875 687.273438 118.933594 684.546875 124.1875 680.863281 C 131.21875 675.964844 148.792969 659.664062 139.4375 650.226562 Z M 139.4375 650.226562 " fill-opacity="1" fill-rule="nonzero"/><g clip-path="url(#860117a465)"><path fill="#ffffff" d="M 64.625 692.386719 C 62.792969 684.996094 68.648438 680.484375 74.742188 678.335938 C 76.222656 677.8125 79.140625 676.246094 80.679688 676.292969 C 84.722656 676.421875 84.789062 680.453125 85.980469 684.050781 C 87.03125 687.257812 90.230469 692.804688 88.171875 695.636719 C 87.027344 697.210938 82.09375 698.097656 80.015625 698.707031 C 73.953125 700.503906 66.453125 699.75 64.625 692.386719 Z M 64.625 692.386719 " fill-opacity="1" fill-rule="nonzero"/></g><path fill="#ffffff" d="M 66.597656 637.546875 C 71.777344 647.75 58.460938 658.832031 49.804688 661.382812 C 44.730469 662.878906 38.332031 663.058594 33.078125 663.164062 C 27.757812 663.273438 26.601562 660.582031 23.910156 655.910156 C 20.039062 649.179688 21.304688 647.382812 27.15625 642.453125 C 30.589844 639.566406 34.355469 637.195312 38.441406 635.34375 C 46.046875 631.878906 61.632812 627.765625 66.597656 637.546875 Z M 66.597656 637.546875 " fill-opacity="1" fill-rule="nonzero"/><g clip-path="url(#614bef362c)"><path fill="#ffffff" d="M 1.148438 669.058594 C 3.921875 675.375 10.253906 676.019531 15.832031 673.566406 C 17.417969 672.871094 22.292969 670.96875 22.839844 669.238281 C 23.75 666.378906 15.160156 651.625 12.445312 651.742188 C 10.011719 651.847656 4.222656 655.785156 2.625 657.691406 C 0.0390625 660.765625 -0.457031 665.414062 1.148438 669.058594 Z M 1.148438 669.058594 " fill-opacity="1" fill-rule="nonzero"/></g><path fill="#ffffff" d="M 215.640625 530.210938 C 205.554688 526.863281 196.472656 540.511719 193.5 548.375 C 191.113281 554.667969 191.730469 561.332031 190.261719 567.769531 C 188.71875 574.53125 190.46875 576.109375 196.066406 580.515625 C 201.71875 584.957031 203.140625 583.96875 207.753906 578.996094 C 211.890625 574.582031 215.261719 569.648438 217.875 564.191406 C 221.75 556.035156 228.328125 534.421875 215.640625 530.210938 Z M 215.640625 530.210938 " fill-opacity="1" fill-rule="nonzero"/><path fill="#ffffff" d="M 174.800781 603.785156 C 168.433594 597.394531 173.207031 589.949219 177.59375 584.4375 C 178.296875 583.550781 179.394531 581.367188 180.382812 580.839844 C 184.011719 578.929688 188.195312 584.382812 190.957031 586.644531 C 196.367188 591.089844 198.089844 592.4375 193.878906 597.703125 C 189.449219 603.261719 181.824219 610.84375 174.800781 603.785156 Z M 174.800781 603.785156 " fill-opacity="1" fill-rule="nonzero"/><path fill="#ffffff" d="M 147.179688 556.386719 C 157.046875 562.070312 152.085938 578.300781 146.015625 584.933594 C 142.644531 588.621094 136.40625 593.378906 132.015625 595.453125 C 127.6875 597.496094 123.085938 593.730469 119.488281 591.203125 C 114.03125 587.378906 115.492188 584.820312 117.621094 578.800781 C 118.6875 575.78125 120.066406 572.914062 121.757812 570.199219 C 126.277344 562.953125 137.554688 550.847656 147.179688 556.386719 Z M 147.179688 556.386719 " fill-opacity="1" fill-rule="nonzero"/><path fill="#ffffff" d="M 108.03125 613.941406 C 114.011719 618.992188 120.078125 615.535156 123.9375 610.175781 C 128.167969 604.316406 126.242188 603.476562 120.3125 599.34375 C 117.953125 597.703125 113.082031 592.578125 110.28125 593.550781 C 108.886719 594.03125 107.464844 597.117188 106.671875 598.367188 C 103.390625 603.527344 102.75 609.488281 108.03125 613.941406 Z M 108.03125 613.941406 " fill-opacity="1" fill-rule="nonzero"/><path fill="#ffffff" d="M 278.300781 429.113281 C 269.058594 420.382812 253.835938 432.496094 249.722656 441.074219 C 247.664062 445.449219 245.984375 449.964844 244.679688 454.625 C 243.324219 459.546875 247.191406 462.402344 250.703125 465.703125 C 255.9375 470.609375 257.726562 469.152344 263.433594 465.246094 C 267.074219 462.75 270.304688 459.808594 273.125 456.414062 C 278.429688 450.058594 286.167969 436.542969 278.300781 429.113281 Z M 278.300781 429.113281 " fill-opacity="1" fill-rule="nonzero"/><path fill="#ffffff" d="M 231.589844 483.222656 C 225.851562 478.835938 227.082031 472.335938 231.144531 467.484375 C 232.832031 465.46875 234.648438 462.59375 237.285156 462.640625 C 239.816406 462.6875 244.386719 468.679688 246.402344 470.453125 C 250.105469 473.734375 252.449219 474.390625 249.273438 478.578125 C 244.964844 484.277344 238.207031 488.273438 231.589844 483.222656 Z M 231.589844 483.222656 " fill-opacity="1" fill-rule="nonzero"/><path fill="#ffffff" d="M 204.804688 435.046875 C 214.433594 442.550781 205.363281 462.199219 199.546875 469.417969 C 196.128906 473.648438 192.039062 477.914062 188.4375 481.921875 C 184.582031 486.210938 178.726562 484.328125 173.578125 482.652344 C 167.480469 480.664062 169.308594 475.632812 170.335938 470.066406 C 171.433594 464.304688 173.390625 458.847656 176.195312 453.699219 C 180.3125 446.054688 194.335938 426.878906 204.804688 435.046875 Z M 204.804688 435.046875 " fill-opacity="1" fill-rule="nonzero"/><path fill="#ffffff" d="M 171.078125 512.429688 C 178.941406 513.867188 182.640625 507.824219 184.339844 501.324219 C 184.710938 499.898438 185.964844 496.859375 185.734375 495.539062 C 185.007812 491.308594 176.9375 491.351562 173.246094 490.515625 C 165.644531 488.777344 165.234375 490.292969 163.789062 496.949219 C 162.402344 503.375 163.238281 510.796875 171.078125 512.429688 Z M 171.078125 512.429688 " fill-opacity="1" fill-rule="nonzero"/><path fill="#ffffff" d="M 382.300781 374.800781 C 378.578125 364.246094 361.121094 365.785156 353.121094 369.636719 C 348.011719 372.09375 343.496094 376.441406 339.140625 379.988281 C 334.957031 383.394531 336.3125 387.09375 337.613281 392.191406 C 339.378906 399.113281 340.808594 399.425781 347.84375 399.21875 C 352.785156 399.070312 357.59375 398.191406 362.269531 396.582031 C 370.269531 393.855469 386.089844 385.539062 382.300781 374.800781 Z M 382.300781 374.800781 " fill-opacity="1" fill-rule="nonzero"/><path fill="#ffffff" d="M 312.523438 397.476562 C 309.996094 391.035156 313.96875 386.3125 319.628906 384.15625 C 326.398438 381.574219 327.976562 381.984375 330.039062 389.175781 C 330.78125 391.765625 333.738281 397.46875 333.246094 400.039062 C 332.6875 402.960938 330.199219 402.933594 327.410156 403.664062 C 321.25 405.257812 315.128906 404.140625 312.523438 397.476562 Z M 312.523438 397.476562 " fill-opacity="1" fill-rule="nonzero"/><path fill="#ffffff" d="M 315.210938 342.484375 C 319.324219 353.808594 301.554688 365.445312 293.140625 368.71875 C 289.601562 370.097656 285.871094 370.773438 282.226562 371.785156 C 279.636719 372.507812 277.074219 374.488281 274.53125 374.921875 C 270.738281 375.570312 262.398438 369.644531 260.835938 365.910156 C 257.765625 358.558594 275.136719 346.617188 280.703125 343.363281 C 288.238281 338.96875 310.621094 329.84375 315.210938 342.484375 Z M 315.210938 342.484375 " fill-opacity="1" fill-rule="nonzero"/><path fill="#ffffff" d="M 245.195312 394.375 C 252.402344 399.53125 259.03125 393.738281 263.730469 388.464844 C 264.421875 387.691406 265.996094 386.480469 266.390625 385.515625 C 267.972656 381.644531 264.4375 380.136719 261.429688 377.515625 C 258.898438 375.3125 254.933594 370.105469 251.535156 371.023438 C 250.011719 371.4375 248.589844 373.816406 247.613281 374.933594 C 242.941406 380.226562 237.394531 388.777344 245.195312 394.375 Z M 245.195312 394.375 " fill-opacity="1" fill-rule="nonzero"/><path fill="#ffffff" d="M 510.921875 312.132812 C 501.433594 304.207031 482.292969 317.945312 475.761719 324.554688 C 473.414062 326.933594 471.421875 329.621094 469.167969 332.089844 C 467.347656 334.074219 464.648438 335.316406 462.980469 337.261719 C 460.253906 340.445312 461.8125 351.128906 464.5625 354.328125 C 469.917969 360.550781 490.464844 348.394531 495.371094 344.890625 C 502.332031 339.90625 521.761719 321.179688 510.921875 312.132812 Z M 510.921875 312.132812 " fill-opacity="1" fill-rule="nonzero"/><path fill="#ffffff" d="M 432.101562 354.796875 C 430.625 345.460938 439.914062 342.269531 447.132812 340.730469 C 452.078125 339.671875 452.433594 340.492188 453.660156 345.425781 C 454.261719 347.878906 457.53125 356.335938 456.417969 358.675781 C 455.140625 361.371094 449.789062 361.839844 446.929688 362.425781 C 440.703125 363.707031 433.300781 362.292969 432.101562 354.796875 Z M 432.101562 354.796875 " fill-opacity="1" fill-rule="nonzero"/><path fill="#ffffff" d="M 438.253906 300.449219 C 442.863281 311.085938 428.765625 320.804688 420.03125 322.578125 C 414.570312 323.695312 407.894531 323.414062 402.359375 323.308594 C 397.152344 323.207031 395.53125 318.523438 393.429688 314.15625 C 390.253906 307.601562 393.148438 305.859375 398.617188 302.035156 C 401.863281 299.769531 405.324219 297.902344 408.996094 296.425781 C 417.160156 293.136719 433.65625 289.800781 438.253906 300.449219 Z M 438.253906 300.449219 " fill-opacity="1" fill-rule="nonzero"/><path fill="#ffffff" d="M 369.007812 328.691406 C 373 336.785156 381.394531 334.660156 387.746094 331.40625 C 393.851562 328.269531 391.164062 325.703125 388.542969 320.242188 C 387.546875 318.15625 386.453125 314.105469 384.824219 312.476562 C 382.78125 310.449219 382.429688 311.199219 379.910156 311.917969 C 372.765625 313.9375 365.039062 320.589844 369.007812 328.691406 Z M 369.007812 328.691406 " fill-opacity="1" fill-rule="nonzero"/><path fill="#ffffff" d="M 566.421875 177.777344 C 553.824219 176.957031 548.796875 197.53125 548.898438 206.871094 C 548.960938 212.410156 549.042969 218.917969 549.484375 224.316406 C 549.90625 229.460938 556.765625 233.394531 561.578125 234.71875 C 574.84375 238.367188 589.058594 179.257812 566.421875 177.777344 Z M 566.421875 177.777344 " fill-opacity="1" fill-rule="nonzero"/><path fill="#ffffff" d="M 540.683594 260.191406 C 537.144531 257.582031 535.828125 252.875 536.605469 248.683594 C 537.164062 245.707031 540.144531 238.078125 542.644531 236.328125 C 545.753906 234.160156 549.773438 237.777344 552.824219 239.519531 C 556.640625 241.691406 561.65625 242.6875 560.511719 247.535156 C 560.167969 249.003906 558.839844 250.605469 558.109375 251.925781 C 554.691406 258.007812 548.347656 265.847656 540.683594 260.191406 Z M 540.683594 260.191406 " fill-opacity="1" fill-rule="nonzero"/><path fill="#ffffff" d="M 505.617188 218.183594 C 515.355469 221.601562 514.546875 236.15625 510.773438 243.65625 C 508.03125 249.105469 502.683594 252.925781 498.191406 256.851562 C 493.785156 260.710938 491.042969 259.105469 485.664062 256.617188 C 479.042969 253.550781 479.035156 252.046875 480.269531 244.847656 C 481.019531 240.53125 482.386719 236.417969 484.367188 232.507812 C 487.996094 225.3125 496.386719 214.941406 505.617188 218.183594 Z M 505.617188 218.183594 " fill-opacity="1" fill-rule="nonzero"/><path fill="#ffffff" d="M 476.398438 278.808594 C 481.257812 282.078125 486.644531 281.113281 489.945312 276.382812 C 493.039062 271.945312 495.070312 268.566406 490.003906 265.609375 C 487.113281 263.917969 480.660156 259.0625 477.488281 259.023438 C 474.820312 258.984375 474.628906 260.476562 473.472656 262.886719 C 470.695312 268.703125 470.484375 274.574219 476.398438 278.808594 Z M 476.398438 278.808594 " fill-opacity="1" fill-rule="nonzero"/><path fill="#ffffff" d="M 610.273438 75.191406 C 601.558594 67.492188 587.53125 77.84375 583.40625 86.097656 C 581.363281 90.1875 579.054688 97.410156 578.617188 102 C 578.164062 106.726562 583.402344 109.714844 586.960938 112.152344 C 592.175781 115.726562 594.390625 113.761719 599.070312 110.054688 C 601.988281 107.722656 604.558594 105.054688 606.78125 102.050781 C 611.789062 95.371094 618.078125 82.101562 610.273438 75.191406 Z M 610.273438 75.191406 " fill-opacity="1" fill-rule="nonzero"/><path fill="#ffffff" d="M 570.59375 129.933594 C 564.175781 126.777344 563.972656 120.472656 567.304688 115.144531 C 568.183594 113.75 570.007812 109.96875 571.859375 109.625 C 574.53125 109.132812 581.839844 115.789062 583.882812 117.125 C 589.078125 120.527344 588.578125 121.195312 585.511719 125.453125 C 581.96875 130.402344 576.722656 132.929688 570.59375 129.933594 Z M 570.59375 129.933594 " fill-opacity="1" fill-rule="nonzero"/><path fill="#ffffff" d="M 537.191406 86.164062 C 547.007812 92.269531 541.179688 112.648438 537.40625 120.710938 C 535.980469 123.757812 534.113281 126.542969 532.328125 129.375 C 530.65625 132.054688 529.714844 135.726562 528.039062 138.164062 C 525.417969 141.988281 515.523438 143.914062 510.988281 141.824219 C 504.4375 138.804688 508.503906 118.972656 510.023438 113.414062 C 512.351562 104.867188 524.441406 78.234375 537.191406 86.164062 Z M 537.191406 86.164062 " fill-opacity="1" fill-rule="nonzero"/><path fill="#ffffff" d="M 518.816406 171.777344 C 528.207031 171.328125 529.304688 161.835938 528.789062 154.476562 C 528.722656 153.476562 529.101562 151.789062 528.480469 150.933594 C 526.464844 148.144531 517.207031 149.816406 513.996094 149.921875 C 507.503906 150.125 507.726562 152.027344 507.832031 157.40625 C 507.964844 164.339844 510.09375 172.1875 518.816406 171.777344 Z M 518.816406 171.777344 " fill-opacity="1" fill-rule="nonzero"/><g clip-path="url(#570196fcb8)"><path fill="#ffffff" d="M 711.515625 17.683594 C 707.777344 7 690.632812 8.792969 682.757812 13.015625 C 677.859375 15.640625 673.585938 20.121094 669.472656 23.773438 C 665.4375 27.363281 666.976562 31.03125 668.496094 36.054688 C 670.199219 41.691406 670.960938 42.949219 676.667969 42.75 C 681.597656 42.613281 686.402344 41.777344 691.085938 40.238281 C 699.351562 37.472656 715.40625 28.800781 711.515625 17.683594 Z M 711.515625 17.683594 " fill-opacity="1" fill-rule="nonzero"/></g><path fill="#ffffff" d="M 643.519531 42.433594 C 640.65625 35.820312 644.878906 30.777344 650.808594 28.570312 C 656.3125 26.523438 658.1875 25.503906 660.339844 32.007812 C 661.339844 35.03125 664.890625 40.960938 664.445312 44.066406 C 664.050781 46.839844 662.375 46.683594 659.898438 47.570312 C 653.523438 49.84375 646.648438 49.652344 643.519531 42.433594 Z M 643.519531 42.433594 " fill-opacity="1" fill-rule="nonzero"/><g clip-path="url(#8c5b4418e0)"><path fill="#ffffff" d="M 643.9375 -12.636719 C 648.382812 -1.898438 632.105469 10.332031 624.050781 14.011719 C 618.433594 16.574219 611.59375 19.0625 605.796875 20.871094 C 600.773438 22.445312 596.105469 17.816406 592.667969 14.34375 C 587.769531 9.382812 593.039062 4.96875 596.9375 0.464844 C 600.820312 -3.96875 605.269531 -7.726562 610.289062 -10.808594 C 617.617188 -15.363281 638.925781 -24.757812 643.9375 -12.636719 Z M 643.9375 -12.636719 " fill-opacity="1" fill-rule="nonzero"/></g><path fill="#ffffff" d="M 576.007812 41.605469 C 583.179688 46.347656 589.578125 40.816406 594.003906 35.503906 C 594.859375 34.476562 597.96875 31.746094 597.890625 30.074219 C 597.761719 27.253906 589.238281 22.113281 587.328125 20.585938 C 581.488281 15.890625 579.964844 19.289062 576.125 24.148438 C 572.070312 29.277344 569.1875 37.078125 576.007812 41.605469 Z M 576.007812 41.605469 " fill-opacity="1" fill-rule="nonzero"/></g></g></g></svg>