<svg xmlns="http://www.w3.org/2000/svg" xmlns:xlink="http://www.w3.org/1999/xlink" width="1080" zoomAndPan="magnify" viewBox="0 0 810 1439.999935" height="1920" preserveAspectRatio="xMidYMid meet" version="1.0"><defs><filter x="0%" y="0%" width="100%" height="100%" id="1eada24df8"><feColorMatrix values="0 0 0 0 1 0 0 0 0 1 0 0 0 0 1 0 0 0 1 0" color-interpolation-filters="sRGB"/></filter><clipPath id="182b2e47f1"><path d="M 236 733 L 809.976562 733 L 809.976562 1440 L 236 1440 Z M 236 733 " clip-rule="nonzero"/></clipPath><clipPath id="a98e4dcbb7"><path d="M 0 744 L 353 744 L 353 1440 L 0 1440 Z M 0 744 " clip-rule="nonzero"/></clipPath><clipPath id="e739fc234d"><path d="M 254 390 L 809.976562 390 L 809.976562 881 L 254 881 Z M 254 390 " clip-rule="nonzero"/></clipPath><clipPath id="ae46691960"><path d="M 483 0 L 809.976562 0 L 809.976562 500 L 483 500 Z M 483 0 " clip-rule="nonzero"/></clipPath><clipPath id="fc18402009"><path d="M 749 517 L 809.976562 517 L 809.976562 647 L 749 647 Z M 749 517 " clip-rule="nonzero"/></clipPath><clipPath id="643c639add"><path d="M 655 1044 L 809.976562 1044 L 809.976562 1143 L 655 1143 Z M 655 1044 " clip-rule="nonzero"/></clipPath><clipPath id="b52b8221ed"><path d="M 0 1408 L 52 1408 L 52 1440 L 0 1440 Z M 0 1408 " clip-rule="nonzero"/></clipPath><clipPath id="4146112b19"><rect x="0" width="810" y="0" height="1440"/></clipPath><mask id="749d3460e0"><g filter="url(#1eada24df8)"><rect x="-81" width="972" fill="#000000" y="-143.999994" height="1727.999922" fill-opacity="0.28"/></g></mask><clipPath id="c16dad67b9"><path d="M 422 1037 L 470 1037 L 470 1105 L 422 1105 Z M 422 1037 " clip-rule="nonzero"/></clipPath><clipPath id="e95dbda7ff"><path d="M -29.3125 358.148438 L 769.753906 0.992188 L 1129.96875 806.902344 L 330.90625 1164.058594 Z M -29.3125 358.148438 " clip-rule="nonzero"/></clipPath><clipPath id="db98964ee8"><path d="M -29.3125 358.148438 L 769.753906 0.992188 L 1129.96875 806.902344 L 330.90625 1164.058594 Z M -29.3125 358.148438 " clip-rule="nonzero"/></clipPath><clipPath id="0efcfe8500"><path d="M 396 1097 L 428 1097 L 428 1129 L 396 1129 Z M 396 1097 " clip-rule="nonzero"/></clipPath><clipPath id="ad71eca1d9"><path d="M -29.3125 358.148438 L 769.753906 0.992188 L 1129.96875 806.902344 L 330.90625 1164.058594 Z M -29.3125 358.148438 " clip-rule="nonzero"/></clipPath><clipPath id="37f94274b8"><path d="M -29.3125 358.148438 L 769.753906 0.992188 L 1129.96875 806.902344 L 330.90625 1164.058594 Z M -29.3125 358.148438 " clip-rule="nonzero"/></clipPath><clipPath id="48a6932717"><path d="M 329 1058 L 380 1058 L 380 1108 L 329 1108 Z M 329 1058 " clip-rule="nonzero"/></clipPath><clipPath id="e956ce9f1b"><path d="M -29.3125 358.148438 L 769.753906 0.992188 L 1129.96875 806.902344 L 330.90625 1164.058594 Z M -29.3125 358.148438 " clip-rule="nonzero"/></clipPath><clipPath id="8dc723955d"><path d="M -29.3125 358.148438 L 769.753906 0.992188 L 1129.96875 806.902344 L 330.90625 1164.058594 Z M -29.3125 358.148438 " clip-rule="nonzero"/></clipPath><clipPath id="5c92bc3336"><path d="M 312 1104 L 342 1104 L 342 1133 L 312 1133 Z M 312 1104 " clip-rule="nonzero"/></clipPath><clipPath id="ceb7f3fb6e"><path d="M -29.3125 358.148438 L 769.753906 0.992188 L 1129.96875 806.902344 L 330.90625 1164.058594 Z M -29.3125 358.148438 " clip-rule="nonzero"/></clipPath><clipPath id="58444e1893"><path d="M -29.3125 358.148438 L 769.753906 0.992188 L 1129.96875 806.902344 L 330.90625 1164.058594 Z M -29.3125 358.148438 " clip-rule="nonzero"/></clipPath><clipPath id="38dd36c0bf"><path d="M 471 865 L 508 865 L 508 934 L 471 934 Z M 471 865 " clip-rule="nonzero"/></clipPath><clipPath id="cd1ecc2ef0"><path d="M -29.3125 358.148438 L 769.753906 0.992188 L 1129.96875 806.902344 L 330.90625 1164.058594 Z M -29.3125 358.148438 " clip-rule="nonzero"/></clipPath><clipPath id="7daacdd8bb"><path d="M -29.3125 358.148438 L 769.753906 0.992188 L 1129.96875 806.902344 L 330.90625 1164.058594 Z M -29.3125 358.148438 " clip-rule="nonzero"/></clipPath><clipPath id="fee8c32dfa"><path d="M 470 938 L 498 938 L 498 970 L 470 970 Z M 470 938 " clip-rule="nonzero"/></clipPath><clipPath id="e3b8f0acef"><path d="M -29.3125 358.148438 L 769.753906 0.992188 L 1129.96875 806.902344 L 330.90625 1164.058594 Z M -29.3125 358.148438 " clip-rule="nonzero"/></clipPath><clipPath id="8928033906"><path d="M -29.3125 358.148438 L 769.753906 0.992188 L 1129.96875 806.902344 L 330.90625 1164.058594 Z M -29.3125 358.148438 " clip-rule="nonzero"/></clipPath><clipPath id="69c36cb61f"><path d="M 401 929 L 439 929 L 439 984 L 401 984 Z M 401 929 " clip-rule="nonzero"/></clipPath><clipPath id="fc8cc69d61"><path d="M -29.3125 358.148438 L 769.753906 0.992188 L 1129.96875 806.902344 L 330.90625 1164.058594 Z M -29.3125 358.148438 " clip-rule="nonzero"/></clipPath><clipPath id="e512d2efe7"><path d="M -29.3125 358.148438 L 769.753906 0.992188 L 1129.96875 806.902344 L 330.90625 1164.058594 Z M -29.3125 358.148438 " clip-rule="nonzero"/></clipPath><clipPath id="80e4b1f7cb"><path d="M 399 988 L 426 988 L 426 1015 L 399 1015 Z M 399 988 " clip-rule="nonzero"/></clipPath><clipPath id="ee3b150ae9"><path d="M -29.3125 358.148438 L 769.753906 0.992188 L 1129.96875 806.902344 L 330.90625 1164.058594 Z M -29.3125 358.148438 " clip-rule="nonzero"/></clipPath><clipPath id="42705011f1"><path d="M -29.3125 358.148438 L 769.753906 0.992188 L 1129.96875 806.902344 L 330.90625 1164.058594 Z M -29.3125 358.148438 " clip-rule="nonzero"/></clipPath><clipPath id="688cff48a9"><path d="M 481 720 L 518 720 L 518 778 L 481 778 Z M 481 720 " clip-rule="nonzero"/></clipPath><clipPath id="31f2563298"><path d="M -29.3125 358.148438 L 769.753906 0.992188 L 1129.96875 806.902344 L 330.90625 1164.058594 Z M -29.3125 358.148438 " clip-rule="nonzero"/></clipPath><clipPath id="8e32767605"><path d="M -29.3125 358.148438 L 769.753906 0.992188 L 1129.96875 806.902344 L 330.90625 1164.058594 Z M -29.3125 358.148438 " clip-rule="nonzero"/></clipPath><clipPath id="22f4b631b4"><path d="M 472 779 L 500 779 L 500 806 L 472 806 Z M 472 779 " clip-rule="nonzero"/></clipPath><clipPath id="8147de4295"><path d="M -29.3125 358.148438 L 769.753906 0.992188 L 1129.96875 806.902344 L 330.90625 1164.058594 Z M -29.3125 358.148438 " clip-rule="nonzero"/></clipPath><clipPath id="2438850d5a"><path d="M -29.3125 358.148438 L 769.753906 0.992188 L 1129.96875 806.902344 L 330.90625 1164.058594 Z M -29.3125 358.148438 " clip-rule="nonzero"/></clipPath><clipPath id="c559b198f5"><path d="M 404 764 L 441 764 L 441 834 L 404 834 Z M 404 764 " clip-rule="nonzero"/></clipPath><clipPath id="e00db03133"><path d="M -29.3125 358.148438 L 769.753906 0.992188 L 1129.96875 806.902344 L 330.90625 1164.058594 Z M -29.3125 358.148438 " clip-rule="nonzero"/></clipPath><clipPath id="fbbf83622a"><path d="M -29.3125 358.148438 L 769.753906 0.992188 L 1129.96875 806.902344 L 330.90625 1164.058594 Z M -29.3125 358.148438 " clip-rule="nonzero"/></clipPath><clipPath id="e12d50cfbb"><path d="M 411 840 L 439 840 L 439 869 L 411 869 Z M 411 840 " clip-rule="nonzero"/></clipPath><clipPath id="502e496eaf"><path d="M -29.3125 358.148438 L 769.753906 0.992188 L 1129.96875 806.902344 L 330.90625 1164.058594 Z M -29.3125 358.148438 " clip-rule="nonzero"/></clipPath><clipPath id="d2ef53d3e0"><path d="M -29.3125 358.148438 L 769.753906 0.992188 L 1129.96875 806.902344 L 330.90625 1164.058594 Z M -29.3125 358.148438 " clip-rule="nonzero"/></clipPath><clipPath id="b926491242"><path d="M 549 603 L 601 603 L 601 656 L 549 656 Z M 549 603 " clip-rule="nonzero"/></clipPath><clipPath id="64b2be2a24"><path d="M -29.3125 358.148438 L 769.753906 0.992188 L 1129.96875 806.902344 L 330.90625 1164.058594 Z M -29.3125 358.148438 " clip-rule="nonzero"/></clipPath><clipPath id="79c508dfdb"><path d="M -29.3125 358.148438 L 769.753906 0.992188 L 1129.96875 806.902344 L 330.90625 1164.058594 Z M -29.3125 358.148438 " clip-rule="nonzero"/></clipPath><clipPath id="ff2cd4c680"><path d="M 526 645 L 555 645 L 555 673 L 526 673 Z M 526 645 " clip-rule="nonzero"/></clipPath><clipPath id="af65f16fb1"><path d="M -29.3125 358.148438 L 769.753906 0.992188 L 1129.96875 806.902344 L 330.90625 1164.058594 Z M -29.3125 358.148438 " clip-rule="nonzero"/></clipPath><clipPath id="70d1fcdc3a"><path d="M -29.3125 358.148438 L 769.753906 0.992188 L 1129.96875 806.902344 L 330.90625 1164.058594 Z M -29.3125 358.148438 " clip-rule="nonzero"/></clipPath><clipPath id="3b60bd4fd7"><path d="M 453 601 L 509 601 L 509 664 L 453 664 Z M 453 601 " clip-rule="nonzero"/></clipPath><clipPath id="c8bf6ba64f"><path d="M -29.3125 358.148438 L 769.753906 0.992188 L 1129.96875 806.902344 L 330.90625 1164.058594 Z M -29.3125 358.148438 " clip-rule="nonzero"/></clipPath><clipPath id="02b7674b5c"><path d="M -29.3125 358.148438 L 769.753906 0.992188 L 1129.96875 806.902344 L 330.90625 1164.058594 Z M -29.3125 358.148438 " clip-rule="nonzero"/></clipPath><clipPath id="af1893c07c"><path d="M 443 668 L 473 668 L 473 700 L 443 700 Z M 443 668 " clip-rule="nonzero"/></clipPath><clipPath id="3bf5b16421"><path d="M -29.3125 358.148438 L 769.753906 0.992188 L 1129.96875 806.902344 L 330.90625 1164.058594 Z M -29.3125 358.148438 " clip-rule="nonzero"/></clipPath><clipPath id="dbb6f2ac65"><path d="M -29.3125 358.148438 L 769.753906 0.992188 L 1129.96875 806.902344 L 330.90625 1164.058594 Z M -29.3125 358.148438 " clip-rule="nonzero"/></clipPath><clipPath id="da17a3f39c"><path d="M 668 472 L 719 472 L 719 545 L 668 545 Z M 668 472 " clip-rule="nonzero"/></clipPath><clipPath id="2db1acc6b7"><path d="M -29.3125 358.148438 L 769.753906 0.992188 L 1129.96875 806.902344 L 330.90625 1164.058594 Z M -29.3125 358.148438 " clip-rule="nonzero"/></clipPath><clipPath id="24ca898247"><path d="M -29.3125 358.148438 L 769.753906 0.992188 L 1129.96875 806.902344 L 330.90625 1164.058594 Z M -29.3125 358.148438 " clip-rule="nonzero"/></clipPath><clipPath id="f2f3c34e5d"><path d="M 640 534 L 672 534 L 672 566 L 640 566 Z M 640 534 " clip-rule="nonzero"/></clipPath><clipPath id="236b71470e"><path d="M -29.3125 358.148438 L 769.753906 0.992188 L 1129.96875 806.902344 L 330.90625 1164.058594 Z M -29.3125 358.148438 " clip-rule="nonzero"/></clipPath><clipPath id="a72e52a52a"><path d="M -29.3125 358.148438 L 769.753906 0.992188 L 1129.96875 806.902344 L 330.90625 1164.058594 Z M -29.3125 358.148438 " clip-rule="nonzero"/></clipPath><clipPath id="8d06e43373"><path d="M 574 492 L 627 492 L 627 541 L 574 541 Z M 574 492 " clip-rule="nonzero"/></clipPath><clipPath id="24fe6b49e7"><path d="M -29.3125 358.148438 L 769.753906 0.992188 L 1129.96875 806.902344 L 330.90625 1164.058594 Z M -29.3125 358.148438 " clip-rule="nonzero"/></clipPath><clipPath id="d3f7980bb1"><path d="M -29.3125 358.148438 L 769.753906 0.992188 L 1129.96875 806.902344 L 330.90625 1164.058594 Z M -29.3125 358.148438 " clip-rule="nonzero"/></clipPath><clipPath id="79f112809c"><path d="M 554 536 L 584 536 L 584 566 L 554 566 Z M 554 536 " clip-rule="nonzero"/></clipPath><clipPath id="dba31a9897"><path d="M -29.3125 358.148438 L 769.753906 0.992188 L 1129.96875 806.902344 L 330.90625 1164.058594 Z M -29.3125 358.148438 " clip-rule="nonzero"/></clipPath><clipPath id="0c97bd6c8a"><path d="M -29.3125 358.148438 L 769.753906 0.992188 L 1129.96875 806.902344 L 330.90625 1164.058594 Z M -29.3125 358.148438 " clip-rule="nonzero"/></clipPath><clipPath id="d8fae834bf"><path d="M 694 293 L 735 293 L 735 362 L 694 362 Z M 694 293 " clip-rule="nonzero"/></clipPath><clipPath id="89e271d831"><path d="M -29.3125 358.148438 L 769.753906 0.992188 L 1129.96875 806.902344 L 330.90625 1164.058594 Z M -29.3125 358.148438 " clip-rule="nonzero"/></clipPath><clipPath id="6eea6428d7"><path d="M -29.3125 358.148438 L 769.753906 0.992188 L 1129.96875 806.902344 L 330.90625 1164.058594 Z M -29.3125 358.148438 " clip-rule="nonzero"/></clipPath><clipPath id="7ff06d64d9"><path d="M 705 369 L 733 369 L 733 401 L 705 401 Z M 705 369 " clip-rule="nonzero"/></clipPath><clipPath id="eb47c9b303"><path d="M -29.3125 358.148438 L 769.753906 0.992188 L 1129.96875 806.902344 L 330.90625 1164.058594 Z M -29.3125 358.148438 " clip-rule="nonzero"/></clipPath><clipPath id="c36541e1bc"><path d="M -29.3125 358.148438 L 769.753906 0.992188 L 1129.96875 806.902344 L 330.90625 1164.058594 Z M -29.3125 358.148438 " clip-rule="nonzero"/></clipPath><clipPath id="ffe0b3a547"><path d="M 639 370 L 676 370 L 676 424 L 639 424 Z M 639 370 " clip-rule="nonzero"/></clipPath><clipPath id="dd50182647"><path d="M -29.3125 358.148438 L 769.753906 0.992188 L 1129.96875 806.902344 L 330.90625 1164.058594 Z M -29.3125 358.148438 " clip-rule="nonzero"/></clipPath><clipPath id="a9c14b7704"><path d="M -29.3125 358.148438 L 769.753906 0.992188 L 1129.96875 806.902344 L 330.90625 1164.058594 Z M -29.3125 358.148438 " clip-rule="nonzero"/></clipPath><clipPath id="8c1206f48a"><path d="M 642 429 L 669 429 L 669 454 L 642 454 Z M 642 429 " clip-rule="nonzero"/></clipPath><clipPath id="d761143d2b"><path d="M -29.3125 358.148438 L 769.753906 0.992188 L 1129.96875 806.902344 L 330.90625 1164.058594 Z M -29.3125 358.148438 " clip-rule="nonzero"/></clipPath><clipPath id="6fce4ed4e4"><path d="M -29.3125 358.148438 L 769.753906 0.992188 L 1129.96875 806.902344 L 330.90625 1164.058594 Z M -29.3125 358.148438 " clip-rule="nonzero"/></clipPath><clipPath id="f733494e74"><path d="M 677 156 L 714 156 L 714 211 L 677 211 Z M 677 156 " clip-rule="nonzero"/></clipPath><clipPath id="edd8734308"><path d="M -29.3125 358.148438 L 769.753906 0.992188 L 1129.96875 806.902344 L 330.90625 1164.058594 Z M -29.3125 358.148438 " clip-rule="nonzero"/></clipPath><clipPath id="abb1a17a37"><path d="M -29.3125 358.148438 L 769.753906 0.992188 L 1129.96875 806.902344 L 330.90625 1164.058594 Z M -29.3125 358.148438 " clip-rule="nonzero"/></clipPath><clipPath id="10c383a0c1"><path d="M 673 214 L 701 214 L 701 239 L 673 239 Z M 673 214 " clip-rule="nonzero"/></clipPath><clipPath id="a2f171fc01"><path d="M -29.3125 358.148438 L 769.753906 0.992188 L 1129.96875 806.902344 L 330.90625 1164.058594 Z M -29.3125 358.148438 " clip-rule="nonzero"/></clipPath><clipPath id="fe9689bc01"><path d="M -29.3125 358.148438 L 769.753906 0.992188 L 1129.96875 806.902344 L 330.90625 1164.058594 Z M -29.3125 358.148438 " clip-rule="nonzero"/></clipPath><clipPath id="e6ea60d79a"><path d="M 608 206 L 644 206 L 644 283 L 608 283 Z M 608 206 " clip-rule="nonzero"/></clipPath><clipPath id="9450d52832"><path d="M -29.3125 358.148438 L 769.753906 0.992188 L 1129.96875 806.902344 L 330.90625 1164.058594 Z M -29.3125 358.148438 " clip-rule="nonzero"/></clipPath><clipPath id="9d34a7863f"><path d="M -29.3125 358.148438 L 769.753906 0.992188 L 1129.96875 806.902344 L 330.90625 1164.058594 Z M -29.3125 358.148438 " clip-rule="nonzero"/></clipPath><clipPath id="1878210b8f"><path d="M 626 283 L 655 283 L 655 314 L 626 314 Z M 626 283 " clip-rule="nonzero"/></clipPath><clipPath id="d00e66d578"><path d="M -29.3125 358.148438 L 769.753906 0.992188 L 1129.96875 806.902344 L 330.90625 1164.058594 Z M -29.3125 358.148438 " clip-rule="nonzero"/></clipPath><clipPath id="60d40545ff"><path d="M -29.3125 358.148438 L 769.753906 0.992188 L 1129.96875 806.902344 L 330.90625 1164.058594 Z M -29.3125 358.148438 " clip-rule="nonzero"/></clipPath><clipPath id="47f68ad5c2"><path d="M 741 38 L 791 38 L 791 90 L 741 90 Z M 741 38 " clip-rule="nonzero"/></clipPath><clipPath id="3f67f419a8"><path d="M -29.3125 358.148438 L 769.753906 0.992188 L 1129.96875 806.902344 L 330.90625 1164.058594 Z M -29.3125 358.148438 " clip-rule="nonzero"/></clipPath><clipPath id="dece329080"><path d="M -29.3125 358.148438 L 769.753906 0.992188 L 1129.96875 806.902344 L 330.90625 1164.058594 Z M -29.3125 358.148438 " clip-rule="nonzero"/></clipPath><clipPath id="453c871aa9"><path d="M 719 80 L 748 80 L 748 108 L 719 108 Z M 719 80 " clip-rule="nonzero"/></clipPath><clipPath id="92c116c95f"><path d="M -29.3125 358.148438 L 769.753906 0.992188 L 1129.96875 806.902344 L 330.90625 1164.058594 Z M -29.3125 358.148438 " clip-rule="nonzero"/></clipPath><clipPath id="6d3175b0fc"><path d="M -29.3125 358.148438 L 769.753906 0.992188 L 1129.96875 806.902344 L 330.90625 1164.058594 Z M -29.3125 358.148438 " clip-rule="nonzero"/></clipPath><clipPath id="d3a4d34f31"><path d="M 647 38 L 700 38 L 700 101 L 647 101 Z M 647 38 " clip-rule="nonzero"/></clipPath><clipPath id="dc742994d7"><path d="M -29.3125 358.148438 L 769.753906 0.992188 L 1129.96875 806.902344 L 330.90625 1164.058594 Z M -29.3125 358.148438 " clip-rule="nonzero"/></clipPath><clipPath id="db353d5eb6"><path d="M -29.3125 358.148438 L 769.753906 0.992188 L 1129.96875 806.902344 L 330.90625 1164.058594 Z M -29.3125 358.148438 " clip-rule="nonzero"/></clipPath><clipPath id="5fc7e3f9a2"><path d="M 637 107 L 666 107 L 666 138 L 637 138 Z M 637 107 " clip-rule="nonzero"/></clipPath><clipPath id="69bacfa9c4"><path d="M -29.3125 358.148438 L 769.753906 0.992188 L 1129.96875 806.902344 L 330.90625 1164.058594 Z M -29.3125 358.148438 " clip-rule="nonzero"/></clipPath><clipPath id="1a4bbb5f56"><path d="M -29.3125 358.148438 L 769.753906 0.992188 L 1129.96875 806.902344 L 330.90625 1164.058594 Z M -29.3125 358.148438 " clip-rule="nonzero"/></clipPath><clipPath id="571f304bc0"><rect x="0" width="810" y="0" height="1164"/></clipPath></defs><rect x="-81" width="972" fill="#ffffff" y="-143.999994" height="1727.999922" fill-opacity="1"/><rect x="-81" width="972" fill="#ffffff" y="-143.999994" height="1727.999922" fill-opacity="1"/><g transform="matrix(1, 0, 0, 1, 0, -0.000000000000101068)"><g clip-path="url(#4146112b19)"><g clip-path="url(#182b2e47f1)"><path fill="#d66f29" d="M 508.09375 750.4375 C 560.605469 797.753906 518.332031 909.144531 581.652344 940.570312 C 629.117188 964.136719 677.234375 914.195312 717.949219 880.269531 C 744.324219 858.292969 776.507812 841.882812 810.003906 834.195312 L 810.003906 1042.71875 C 809.273438 1042.625 808.550781 1042.527344 807.832031 1042.425781 C 730.433594 1031.59375 675.597656 990.375 644.484375 1016.921875 C 626.726562 1032.066406 624.40625 1062.703125 624.105469 1067.765625 C 624.105469 1067.765625 620.871094 1095.640625 637.691406 1120.839844 C 672.605469 1173.167969 742.234375 1168.109375 810.007812 1168.527344 L 810.007812 1455.597656 C 792.632812 1427.304688 760.269531 1413.285156 731.441406 1420.277344 C 695.597656 1428.972656 670.402344 1468.90625 679.777344 1510.734375 L 280.933594 1510.734375 C 366.019531 1418.511719 443.976562 1289.496094 387.691406 1178.859375 C 347.503906 1099.851562 246.25 1052.980469 237.261719 964.800781 C 229.738281 890.96875 292.03125 830.441406 349.878906 783.953125 C 395.816406 747.027344 464.300781 710.988281 508.09375 750.4375 Z M 508.09375 750.4375 " fill-opacity="1" fill-rule="nonzero"/></g><g clip-path="url(#a98e4dcbb7)"><path fill="#2f7a7f" d="M 231.707031 745.675781 C 256.820312 751.722656 266.683594 784.007812 260.472656 809.082031 C 254.257812 834.152344 237.390625 855.050781 226.339844 878.394531 C 202.449219 928.835938 206.785156 987.660156 214.21875 1042.976562 C 217.6875 1068.804688 222.097656 1095.546875 236.855469 1117.019531 C 265.671875 1158.976562 328.0625 1172.589844 347.222656 1219.742188 C 362.8125 1258.109375 342.457031 1300.851562 322.148438 1336.9375 C 303.59375 1369.914062 284.269531 1403.15625 256.894531 1429.273438 C 225.898438 1458.859375 189.726562 1480.953125 158.898438 1510.734375 L 34.539062 1510.734375 C 49.953125 1465.679688 86.675781 1451.621094 81.671875 1418.179688 C 79.300781 1402.3125 67.632812 1382.6875 51.539062 1378.515625 C 21.761719 1370.800781 -16.8125 1417.574219 -54.472656 1419.964844 C -58.511719 1420.222656 -68.042969 1420.691406 -73.65625 1414.679688 C -78.042969 1409.980469 -78.15625 1402.8125 -77.769531 1396.390625 C -75.65625 1361.234375 -63.636719 1322.835938 -32.855469 1305.71875 C -7.191406 1291.445312 24.226562 1295.742188 53.558594 1297.074219 C 82.90625 1298.398438 116.671875 1294.039062 133.265625 1269.800781 C 144.117188 1253.945312 144.710938 1233.476562 144.929688 1214.253906 C 145.582031 1157.136719 146.132812 1099.179688 131.484375 1043.960938 C 123.667969 1014.503906 111.597656 986.144531 106.292969 956.125 C 93.398438 883.171875 125.085938 804.140625 184.8125 760.304688 C 198.445312 750.296875 215.253906 741.710938 231.707031 745.675781 Z M 231.707031 745.675781 " fill-opacity="1" fill-rule="nonzero"/></g><g clip-path="url(#e739fc234d)"><path fill="#4da3a9" d="M 714.523438 393.347656 C 719.136719 393.921875 723.898438 394.539062 727.917969 396.871094 C 732.496094 399.53125 735.601562 404.136719 738.015625 408.851562 C 747.8125 428.003906 748.371094 450.398438 748.394531 471.910156 C 748.457031 515.980469 746.074219 563.335938 719.261719 598.308594 C 712.023438 607.75 703.210938 615.953125 696.699219 625.90625 C 690.1875 635.859375 686.128906 648.394531 689.859375 659.6875 C 697.402344 682.546875 737.117188 687.894531 742.601562 688.617188 C 761.265625 691.082031 776.335938 687.75 809.992188 689.226562 L 809.992188 783.148438 C 781.117188 787.980469 739.457031 790.472656 698.855469 814.714844 C 649.214844 844.347656 633.527344 887.140625 612.824219 879.867188 C 600.71875 875.613281 599.765625 858.773438 591.941406 832.257812 C 584.527344 807.128906 560.59375 726.03125 509.246094 701.960938 C 467.214844 682.25 409.804688 702.171875 379.78125 719.5 C 348.421875 737.597656 338.152344 757.929688 309.621094 757.921875 C 288.1875 757.914062 260.648438 746.421875 255.417969 726.226562 C 252.074219 713.34375 258.78125 701.101562 261.386719 696.835938 C 270.707031 681.539062 287.371094 672.550781 303.320312 664.382812 C 319.257812 656.222656 336.011719 647.527344 345.78125 632.519531 C 354.964844 618.414062 356.636719 600.734375 363.832031 585.519531 C 378.738281 553.984375 415.164062 537.941406 449.878906 534.609375 C 463.289062 533.320312 477.226562 533.601562 489.671875 538.757812 C 508.027344 546.382812 521.332031 563.832031 540.300781 569.75 C 561.382812 576.324219 585.09375 566.433594 599.746094 549.902344 C 614.398438 533.375 621.359375 511.382812 625.097656 489.613281 C 628.839844 467.847656 629.753906 445.628906 634.308594 424.019531 C 635.832031 416.796875 637.90625 409.367188 642.8125 403.859375 C 646.953125 399.210938 652.765625 396.363281 658.695312 394.480469 C 676.585938 388.804688 695.898438 391.050781 714.523438 393.347656 Z M 714.523438 393.347656 " fill-opacity="1" fill-rule="nonzero"/></g><g clip-path="url(#ae46691960)"><path fill="#d66f29" d="M 725.117188 330.027344 C 690.171875 326.085938 656.335938 344.371094 654.175781 345.347656 C 632.003906 355.371094 612.234375 372.394531 602.96875 394.886719 C 597.332031 408.566406 595.78125 423.527344 592.003906 437.824219 C 586.046875 460.34375 573.363281 482.332031 552.785156 493.246094 C 532.210938 504.164062 503.105469 500.429688 490.292969 480.980469 C 480.128906 465.542969 482.363281 444.507812 490.914062 428.117188 C 499.46875 411.726562 513.371094 398.898438 526.753906 386.148438 C 550.613281 363.4375 573.863281 339.703125 591.703125 312.027344 C 609.558594 284.355469 621.839844 252.277344 621.769531 219.347656 C 621.75 208.683594 620.570312 197.390625 625.46875 187.925781 C 632.542969 174.253906 649.804688 169.324219 665.1875 169.382812 C 680.574219 169.441406 696.0625 173.042969 711.230469 170.449219 C 733.886719 166.585938 752.441406 149.054688 762.769531 128.523438 C 773.097656 108.003906 776.332031 84.679688 778.011719 61.761719 C 779.3125 44.074219 780.171875 25.160156 790.648438 10.84375 C 795.703125 3.929688 802.410156 -1.117188 810 -4.886719 L 810 429.265625 C 787.46875 409.1875 768.453125 380.632812 762.683594 362.925781 C 761.320312 358.734375 757.289062 344.867188 744.796875 336.53125 C 738.746094 332.5 732.328125 330.839844 725.117188 330.027344 Z M 725.117188 330.027344 " fill-opacity="1" fill-rule="nonzero"/></g><g clip-path="url(#fc18402009)"><path fill="#2f7a7f" d="M 810 517.257812 L 810 646.265625 C 807.941406 646.3125 805.878906 646.300781 803.84375 646.285156 C 789.179688 646.1875 774.507812 646.09375 759.847656 646 C 756.164062 645.976562 751.765625 645.527344 750.054688 642.269531 C 747.503906 637.382812 753.417969 632.621094 758.082031 629.675781 C 770.765625 621.675781 780.378906 608.9375 784.597656 594.550781 C 788.582031 580.964844 787.824219 566.484375 789.863281 552.472656 C 791.886719 538.59375 797.691406 523.925781 810 517.257812 Z M 810 517.257812 " fill-opacity="1" fill-rule="nonzero"/></g><g clip-path="url(#643c639add)"><path fill="#95b2b2" d="M 712.429688 1048.378906 C 751.316406 1054.855469 753.152344 1068.386719 787.125 1071.019531 C 794.800781 1071.617188 802.484375 1071.742188 809.992188 1071.28125 L 809.992188 1138.476562 C 785.355469 1144.421875 763.054688 1142.03125 749.921875 1140.628906 C 722.644531 1137.699219 693.535156 1134.574219 673.910156 1111.523438 C 659.59375 1094.703125 649.398438 1066.179688 660.425781 1052.769531 C 669.875 1041.292969 691.554688 1044.902344 712.429688 1048.378906 Z M 712.429688 1048.378906 " fill-opacity="1" fill-rule="nonzero"/></g><g clip-path="url(#b52b8221ed)"><path fill="#95b2b2" d="M 33.160156 1408.582031 C 40.320312 1409.6875 48.25 1414.289062 50.699219 1421.113281 C 53.675781 1429.40625 47.308594 1437.507812 29.820312 1460.367188 C 11.292969 1484.566406 -0.925781 1500.558594 -8.21875 1510.734375 L -102.152344 1510.734375 C -111.867188 1488.15625 -104.679688 1459.023438 -87.539062 1447.007812 C -67.9375 1433.265625 -51.746094 1453.402344 -21.132812 1441.160156 C 6.558594 1430.085938 13.4375 1405.542969 33.160156 1408.582031 Z M 33.160156 1408.582031 " fill-opacity="1" fill-rule="nonzero"/></g></g></g><g mask="url(#749d3460e0)"><g transform="matrix(1, 0, 0, 1, 0, 276)"><g clip-path="url(#571f304bc0)"><g clip-path="url(#c16dad67b9)"><g clip-path="url(#e95dbda7ff)"><g clip-path="url(#db98964ee8)"><path fill="#ffffff" d="M 462.324219 1038.824219 C 448.613281 1033.511719 433.777344 1054.714844 429.660156 1065.140625 C 427.046875 1071.75 424.214844 1079.691406 422.472656 1086.425781 C 420.875 1092.609375 426.78125 1098.121094 431.1875 1102.117188 C 436.867188 1107.257812 440.195312 1103.015625 445.449219 1098.617188 C 451.488281 1093.542969 456.527344 1087.621094 460.578125 1080.851562 C 466.011719 1071.828125 477.558594 1044.726562 462.324219 1038.824219 Z M 462.324219 1038.824219 " fill-opacity="1" fill-rule="nonzero"/></g></g></g><g clip-path="url(#0efcfe8500)"><g clip-path="url(#ad71eca1d9)"><g clip-path="url(#37f94274b8)"><path fill="#ffffff" d="M 399.523438 1123.652344 C 393.761719 1116.28125 398.066406 1108.28125 403.828125 1102.8125 C 405.226562 1101.484375 407.71875 1098.261719 409.46875 1097.542969 C 414.066406 1095.664062 416.164062 1100.148438 419.308594 1103.589844 C 422.09375 1106.660156 428.464844 1111.277344 427.578125 1115.492188 C 427.082031 1117.832031 421.988281 1121.300781 419.964844 1123.027344 C 414.058594 1128.082031 405.265625 1131 399.523438 1123.652344 Z M 399.523438 1123.652344 " fill-opacity="1" fill-rule="nonzero"/></g></g></g><g clip-path="url(#48a6932717)"><g clip-path="url(#e956ce9f1b)"><g clip-path="url(#8dc723955d)"><path fill="#ffffff" d="M 374.230469 1061.128906 C 385.164062 1069.980469 375.777344 1089.09375 367.34375 1096.300781 C 362.402344 1100.523438 355.3125 1103.933594 349.46875 1106.6875 C 343.554688 1109.476562 340.90625 1107.035156 335.542969 1103.144531 C 327.824219 1097.53125 328.347656 1094.882812 332.4375 1086.417969 C 334.84375 1081.453125 337.875 1076.90625 341.535156 1072.777344 C 348.328125 1065.074219 363.757812 1052.648438 374.230469 1061.128906 Z M 374.230469 1061.128906 " fill-opacity="1" fill-rule="nonzero"/></g></g></g><g clip-path="url(#5c92bc3336)"><g clip-path="url(#ceb7f3fb6e)"><g clip-path="url(#58444e1893)"><path fill="#ffffff" d="M 316.597656 1129.3125 C 322.875 1135.007812 330.308594 1132.558594 335.335938 1127.007812 C 336.765625 1125.429688 341.277344 1120.851562 341.027344 1118.632812 C 340.617188 1114.972656 323.578125 1102.726562 320.585938 1104.21875 C 317.910156 1105.554688 313.390625 1112.878906 312.550781 1115.816406 C 311.195312 1120.5625 312.96875 1126.027344 316.597656 1129.3125 Z M 316.597656 1129.3125 " fill-opacity="1" fill-rule="nonzero"/></g></g></g><g clip-path="url(#38dd36c0bf)"><g clip-path="url(#cd1ecc2ef0)"><g clip-path="url(#7daacdd8bb)"><path fill="#ffffff" d="M 487.636719 865.941406 C 474.644531 867.242188 471.296875 887.109375 471.902344 897.425781 C 472.386719 905.683594 476.417969 912.851562 477.996094 920.816406 C 479.65625 929.171875 482.410156 930.066406 490.90625 932.203125 C 499.472656 934.351562 500.574219 932.53125 503.257812 924.636719 C 505.683594 917.609375 506.992188 910.378906 507.183594 902.949219 C 507.445312 891.851562 503.988281 864.300781 487.636719 865.941406 Z M 487.636719 865.941406 " fill-opacity="1" fill-rule="nonzero"/></g></g></g><g clip-path="url(#fee8c32dfa)"><g clip-path="url(#e3b8f0acef)"><g clip-path="url(#8928033906)"><path fill="#ffffff" d="M 478.714844 968.980469 C 468.363281 965.003906 469.984375 954.253906 472.140625 945.867188 C 472.488281 944.519531 472.625 941.519531 473.46875 940.433594 C 476.582031 936.472656 484.011719 940.488281 488.242188 941.644531 C 496.542969 943.917969 499.15625 944.5625 497.070312 952.589844 C 494.886719 961.042969 490.132812 973.375 478.714844 968.980469 Z M 478.714844 968.980469 " fill-opacity="1" fill-rule="nonzero"/></g></g></g><g clip-path="url(#69c36cb61f)"><g clip-path="url(#fc8cc69d61)"><g clip-path="url(#e512d2efe7)"><path fill="#ffffff" d="M 423.945312 929.648438 C 437.867188 931.078125 440.441406 951.777344 436.957031 962.265625 C 435.023438 968.09375 430.414062 976.558594 426.523438 981.089844 C 422.691406 985.550781 415.640625 983.636719 410.335938 982.601562 C 402.296875 981.046875 402.652344 977.445312 402.019531 969.621094 C 401.703125 965.699219 401.8125 961.792969 402.347656 957.894531 C 403.789062 947.5 410.371094 928.261719 423.945312 929.648438 Z M 423.945312 929.648438 " fill-opacity="1" fill-rule="nonzero"/></g></g></g><g clip-path="url(#80e4b1f7cb)"><g clip-path="url(#ee3b150ae9)"><g clip-path="url(#42705011f1)"><path fill="#ffffff" d="M 408.886719 1013.863281 C 418.132812 1016.53125 423.203125 1009.609375 424.847656 1001.660156 C 426.652344 992.964844 424.070312 992.988281 415.34375 991.324219 C 411.875 990.664062 403.835938 987.359375 401.183594 989.851562 C 399.859375 991.089844 399.8125 995.269531 399.550781 997.070312 C 398.453125 1004.503906 400.726562 1011.511719 408.886719 1013.863281 Z M 408.886719 1013.863281 " fill-opacity="1" fill-rule="nonzero"/></g></g></g><g clip-path="url(#688cff48a9)"><g clip-path="url(#31f2563298)"><g clip-path="url(#8e32767605)"><path fill="#ffffff" d="M 507.246094 721.074219 C 492.492188 715.914062 481.488281 737.140625 481.175781 748.828125 C 481.058594 754.769531 481.4375 760.683594 482.3125 766.5625 C 483.261719 772.765625 489.03125 774.03125 494.628906 775.972656 C 502.960938 778.855469 504.238281 776.320312 508.683594 769.074219 C 511.519531 764.449219 513.667969 759.527344 515.128906 754.304688 C 517.890625 744.511719 519.796875 725.46875 507.246094 721.074219 Z M 507.246094 721.074219 " fill-opacity="1" fill-rule="nonzero"/></g></g></g><g clip-path="url(#22f4b631b4)"><g clip-path="url(#8147de4295)"><g clip-path="url(#2438850d5a)"><path fill="#ffffff" d="M 481.964844 805.214844 C 473.328125 803.171875 471.449219 795.265625 473.574219 787.78125 C 474.457031 784.671875 475.054688 780.535156 478.035156 779.265625 C 480.898438 778.050781 489.03125 782.480469 492.183594 783.460938 C 497.984375 785.285156 500.945312 784.847656 499.484375 791.136719 C 497.503906 799.695312 491.925781 807.566406 481.964844 805.214844 Z M 481.964844 805.214844 " fill-opacity="1" fill-rule="nonzero"/></g></g></g><g clip-path="url(#c559b198f5)"><g clip-path="url(#e00db03133)"><g clip-path="url(#fbbf83622a)"><path fill="#ffffff" d="M 427.75 764.589844 C 442.316406 768.183594 441.996094 794.78125 439.085938 805.796875 C 437.378906 812.257812 434.925781 819.097656 432.894531 825.402344 C 430.722656 832.148438 423.207031 832.96875 416.585938 833.671875 C 408.75 834.5 408.277344 827.9375 406.640625 821.175781 C 404.980469 814.160156 404.4375 807.058594 405.007812 799.871094 C 405.789062 789.226562 411.90625 760.679688 427.75 764.589844 Z M 427.75 764.589844 " fill-opacity="1" fill-rule="nonzero"/></g></g></g><g clip-path="url(#e12d50cfbb)"><g clip-path="url(#502e496eaf)"><g clip-path="url(#d2ef53d3e0)"><path fill="#ffffff" d="M 428.71875 868.335938 C 438.257812 866.007812 439.382812 857.371094 438.027344 849.226562 C 437.730469 847.441406 437.613281 843.398438 436.691406 842.035156 C 433.757812 837.652344 424.71875 841.75 420.15625 842.664062 C 410.757812 844.523438 411.058594 846.433594 412.777344 854.625 C 414.445312 862.53125 419.101562 870.4375 428.71875 868.335938 Z M 428.71875 868.335938 " fill-opacity="1" fill-rule="nonzero"/></g></g></g><g clip-path="url(#b926491242)"><g clip-path="url(#64b2be2a24)"><g clip-path="url(#79c508dfdb)"><path fill="#ffffff" d="M 596.699219 607.972656 C 587.230469 597.996094 568.410156 608.480469 561.367188 616.8125 C 556.867188 622.132812 553.980469 629.273438 550.875 635.441406 C 547.886719 641.363281 551.265625 644.832031 555.28125 649.898438 C 560.730469 656.78125 562.492188 656.417969 570.28125 652.65625 C 575.75 650.007812 580.707031 646.609375 585.148438 642.460938 C 592.757812 635.390625 606.335938 618.121094 596.699219 607.972656 Z M 596.699219 607.972656 " fill-opacity="1" fill-rule="nonzero"/></g></g></g><g clip-path="url(#ff2cd4c680)"><g clip-path="url(#af65f16fb1)"><g clip-path="url(#70d1fcdc3a)"><path fill="#ffffff" d="M 529.777344 668.410156 C 523.710938 662.453125 525.800781 655.164062 531.066406 649.902344 C 537.371094 643.613281 539.347656 643.277344 545.269531 650.316406 C 547.398438 652.847656 553.578125 657.761719 554.3125 660.894531 C 555.152344 664.457031 552.34375 665.667969 549.585938 667.890625 C 543.472656 672.765625 536.042969 674.582031 529.777344 668.410156 Z M 529.777344 668.410156 " fill-opacity="1" fill-rule="nonzero"/></g></g></g><g clip-path="url(#3b60bd4fd7)"><g clip-path="url(#c8bf6ba64f)"><g clip-path="url(#02b7674b5c)"><path fill="#ffffff" d="M 505.210938 605.363281 C 515.507812 616.003906 501.402344 637.976562 493.601562 645.863281 C 490.324219 649.1875 486.476562 651.816406 482.898438 654.78125 C 480.351562 656.890625 478.472656 660.398438 475.832031 662.160156 C 471.90625 664.789062 459.574219 662.324219 455.949219 658.914062 C 448.816406 652.207031 462.320312 630.09375 466.933594 623.652344 C 473.1875 614.945312 493.722656 593.476562 505.210938 605.363281 Z M 505.210938 605.363281 " fill-opacity="1" fill-rule="nonzero"/></g></g></g><g clip-path="url(#af1893c07c)"><g clip-path="url(#3bf5b16421)"><g clip-path="url(#dbb6f2ac65)"><path fill="#ffffff" d="M 452.671875 698.699219 C 463.34375 700.871094 467.878906 691.046875 470.507812 682.773438 C 470.894531 681.554688 472.054688 679.410156 472.015625 678.128906 C 471.851562 672.992188 467.125 673.070312 462.433594 671.640625 C 458.488281 670.441406 451.429688 666.585938 448.078125 669.320312 C 446.574219 670.546875 446.175781 673.925781 445.632812 675.671875 C 443.046875 683.953125 441.113281 696.332031 452.671875 698.699219 Z M 452.671875 698.699219 " fill-opacity="1" fill-rule="nonzero"/></g></g></g><g clip-path="url(#da17a3f39c)"><g clip-path="url(#2db1acc6b7)"><g clip-path="url(#24ca898247)"><path fill="#ffffff" d="M 709.59375 473.144531 C 694.972656 469.011719 680.382812 494.027344 676.371094 504.71875 C 674.929688 508.5625 674.042969 512.578125 672.75 516.480469 C 671.703125 519.625 669.296875 522.371094 668.402344 525.386719 C 666.9375 530.328125 674.046875 541.535156 678.738281 543.742188 C 687.863281 548.039062 704.824219 524.09375 708.574219 517.703125 C 713.886719 508.621094 726.292969 477.859375 709.59375 473.144531 Z M 709.59375 473.144531 " fill-opacity="1" fill-rule="nonzero"/></g></g></g><g clip-path="url(#f2f3c34e5d)"><g clip-path="url(#236b71470e)"><g clip-path="url(#a72e52a52a)"><path fill="#ffffff" d="M 642.546875 560.550781 C 636.210938 550.816406 645.035156 542.578125 652.359375 537.230469 C 657.375 533.5625 658.1875 534.300781 662.035156 539.222656 C 663.945312 541.675781 671.855469 549.523438 671.777344 552.707031 C 671.695312 556.371094 665.925781 559.585938 663.015625 561.675781 C 656.667969 566.234375 647.65625 568.359375 642.546875 560.550781 Z M 642.546875 560.550781 " fill-opacity="1" fill-rule="nonzero"/></g></g></g><g clip-path="url(#8d06e43373)"><g clip-path="url(#24fe6b49e7)"><g clip-path="url(#d3f7980bb1)"><path fill="#ffffff" d="M 622.191406 496.484375 C 632.699219 506.105469 621.753906 524.082031 612.84375 530.453125 C 607.277344 534.445312 599.648438 537.480469 593.378906 540.132812 C 587.488281 542.632812 583.320312 538.191406 578.769531 534.34375 C 571.921875 528.582031 574.296875 525.171875 578.515625 518.140625 C 581.023438 513.972656 583.964844 510.140625 587.347656 506.640625 C 594.855469 498.855469 611.695312 486.839844 622.191406 496.484375 Z M 622.191406 496.484375 " fill-opacity="1" fill-rule="nonzero"/></g></g></g><g clip-path="url(#79f112809c)"><g clip-path="url(#dba31a9897)"><g clip-path="url(#0c97bd6c8a)"><path fill="#ffffff" d="M 558.660156 562.902344 C 567.199219 569.980469 575.554688 563.386719 581.046875 556.546875 C 586.324219 549.96875 582.019531 548.4375 576.34375 543.625 C 574.175781 541.78125 570.917969 537.785156 568.273438 536.773438 C 564.96875 535.527344 564.945312 536.542969 562.480469 538.613281 C 555.476562 544.464844 550.140625 555.800781 558.660156 562.902344 Z M 558.660156 562.902344 " fill-opacity="1" fill-rule="nonzero"/></g></g></g><g clip-path="url(#d8fae834bf)"><g clip-path="url(#89e271d831)"><g clip-path="url(#6eea6428d7)"><path fill="#ffffff" d="M 704.488281 294.554688 C 689.9375 299.949219 694.613281 325.5625 699.414062 335.988281 C 702.261719 342.175781 705.617188 349.4375 708.820312 355.269531 C 711.875 360.832031 721.542969 361.804688 727.609375 360.875 C 744.324219 358.320312 730.625 284.863281 704.488281 294.554688 Z M 704.488281 294.554688 " fill-opacity="1" fill-rule="nonzero"/></g></g></g><g clip-path="url(#7ff06d64d9)"><g clip-path="url(#eb47c9b303)"><g clip-path="url(#c36541e1bc)"><path fill="#ffffff" d="M 716.9375 399.9375 C 711.660156 398.785156 707.820312 394.164062 706.589844 389.070312 C 705.722656 385.449219 705.238281 375.398438 707.167969 372.175781 C 709.570312 368.1875 715.894531 370.230469 720.195312 370.652344 C 725.5625 371.179688 731.695312 369.78125 732.839844 375.792969 C 733.1875 377.613281 732.5 380.078125 732.347656 381.921875 C 731.558594 390.464844 728.371094 402.441406 716.9375 399.9375 Z M 716.9375 399.9375 " fill-opacity="1" fill-rule="nonzero"/></g></g></g><g clip-path="url(#ffe0b3a547)"><g clip-path="url(#dd50182647)"><g clip-path="url(#a9c14b7704)"><path fill="#ffffff" d="M 656.523438 370.386719 C 669.164062 369.339844 675.558594 386.078125 675.085938 396.386719 C 674.738281 403.878906 670.652344 410.847656 667.585938 417.503906 C 664.578125 424.042969 660.691406 423.617188 653.410156 423.523438 C 644.441406 423.398438 643.679688 421.71875 641.453125 413.019531 C 640.128906 407.800781 639.601562 402.5 639.863281 397.121094 C 640.324219 387.226562 644.539062 371.382812 656.523438 370.386719 Z M 656.523438 370.386719 " fill-opacity="1" fill-rule="nonzero"/></g></g></g><g clip-path="url(#8c1206f48a)"><g clip-path="url(#d761143d2b)"><g clip-path="url(#6fce4ed4e4)"><path fill="#ffffff" d="M 654.140625 453.070312 C 661.234375 454.296875 666.792969 450.515625 668.125 443.550781 C 669.371094 437.023438 669.957031 432.214844 662.785156 431.4375 C 658.695312 430.984375 649.019531 428.777344 645.4375 430.320312 C 642.429688 431.617188 642.964844 433.390625 642.875 436.671875 C 642.671875 444.589844 645.378906 451.285156 654.140625 453.070312 Z M 654.140625 453.070312 " fill-opacity="1" fill-rule="nonzero"/></g></g></g><g clip-path="url(#f733494e74)"><g clip-path="url(#edd8734308)"><g clip-path="url(#abb1a17a37)"><path fill="#ffffff" d="M 702.242188 157.453125 C 688.601562 153.1875 678.050781 171.835938 677.5625 183.164062 C 677.320312 188.78125 678.351562 198.042969 680.164062 203.414062 C 682.023438 208.941406 689.402344 209.667969 694.617188 210.621094 C 702.261719 212.011719 703.761719 208.695312 707.152344 202.191406 C 709.253906 198.109375 710.800781 193.828125 711.789062 189.34375 C 714.0625 179.335938 714.460938 161.289062 702.242188 157.453125 Z M 702.242188 157.453125 " fill-opacity="1" fill-rule="nonzero"/></g></g></g><g clip-path="url(#10c383a0c1)"><g clip-path="url(#a2f171fc01)"><g clip-path="url(#fe9689bc01)"><path fill="#ffffff" d="M 685.171875 238.777344 C 676.386719 238.457031 672.992188 231.484375 674.0625 223.832031 C 674.351562 221.828125 674.5 216.671875 676.40625 215.355469 C 679.15625 213.464844 690.695312 217.269531 693.65625 217.742188 C 701.195312 218.953125 700.96875 219.953125 699.660156 226.269531 C 698.167969 233.597656 693.546875 239.066406 685.171875 238.777344 Z M 685.171875 238.777344 " fill-opacity="1" fill-rule="nonzero"/></g></g></g><g clip-path="url(#e6ea60d79a)"><g clip-path="url(#9450d52832)"><g clip-path="url(#9d34a7863f)"><path fill="#ffffff" d="M 625.738281 206.421875 C 639.816406 208.347656 643.496094 234.136719 643.304688 245.078125 C 643.234375 249.207031 642.539062 253.265625 641.957031 257.34375 C 641.417969 261.1875 642.207031 265.777344 641.550781 269.355469 C 640.523438 274.960938 630.386719 282.085938 624.253906 282.015625 C 615.386719 281.910156 610.003906 257.621094 608.917969 250.617188 C 607.246094 239.863281 607.453125 203.914062 625.738281 206.421875 Z M 625.738281 206.421875 " fill-opacity="1" fill-rule="nonzero"/></g></g></g><g clip-path="url(#1878210b8f)"><g clip-path="url(#d00e66d578)"><g clip-path="url(#60d40545ff)"><path fill="#ffffff" d="M 648.058594 311.699219 C 658.371094 306.484375 654.839844 295.285156 650.574219 287.285156 C 649.996094 286.199219 649.578125 284.113281 648.449219 283.460938 C 644.789062 281.34375 635.238281 287.863281 631.6875 289.59375 C 624.503906 293.074219 625.710938 295.097656 628.523438 301.082031 C 632.152344 308.792969 638.476562 316.53125 648.058594 311.699219 Z M 648.058594 311.699219 " fill-opacity="1" fill-rule="nonzero"/></g></g></g><g clip-path="url(#47f68ad5c2)"><g clip-path="url(#3f67f419a8)"><g clip-path="url(#dece329080)"><path fill="#ffffff" d="M 787 42.148438 C 777.445312 32.035156 759.105469 42.644531 752.386719 51.332031 C 748.210938 56.734375 745.660156 63.90625 742.878906 70.070312 C 740.148438 76.121094 743.71875 79.460938 747.9375 84.335938 C 752.679688 89.808594 754.164062 90.835938 760.46875 87.753906 C 765.929688 85.125 770.902344 81.777344 775.386719 77.703125 C 783.273438 70.457031 796.941406 52.671875 787 42.148438 Z M 787 42.148438 " fill-opacity="1" fill-rule="nonzero"/></g></g></g><g clip-path="url(#453c871aa9)"><g clip-path="url(#92c116c95f)"><g clip-path="url(#6d3175b0fc)"><path fill="#ffffff" d="M 723.113281 104.023438 C 716.582031 98.039062 718.796875 90.261719 724.34375 84.8125 C 729.488281 79.753906 731.082031 77.667969 736.757812 83.886719 C 739.398438 86.777344 746.355469 91.652344 747.414062 95.355469 C 748.359375 98.667969 746.402344 99.332031 744.066406 101.570312 C 738.058594 107.320312 730.246094 110.554688 723.113281 104.023438 Z M 723.113281 104.023438 " fill-opacity="1" fill-rule="nonzero"/></g></g></g><g clip-path="url(#d3a4d34f31)"><g clip-path="url(#dc742994d7)"><g clip-path="url(#db353d5eb6)"><path fill="#ffffff" d="M 695.964844 42.019531 C 706.335938 51.839844 694.210938 73.726562 687.015625 81.894531 C 681.996094 87.589844 675.570312 93.808594 669.976562 98.746094 C 665.125 103.03125 657.566406 100.179688 651.96875 98.003906 C 643.980469 94.898438 647.683594 87.300781 649.796875 80.292969 C 651.929688 73.371094 655.039062 66.921875 659.125 60.945312 C 665.0625 52.160156 684.257812 30.933594 695.964844 42.019531 Z M 695.964844 42.019531 " fill-opacity="1" fill-rule="nonzero"/></g></g></g><g clip-path="url(#5fc7e3f9a2)"><g clip-path="url(#69bacfa9c4)"><g clip-path="url(#1a4bbb5f56)"><path fill="#ffffff" d="M 646.941406 136.949219 C 657.371094 138.675781 661.777344 129.261719 664.078125 121.078125 C 664.523438 119.5 666.640625 114.878906 665.714844 113.039062 C 664.15625 109.9375 652.015625 108.445312 649.105469 107.6875 C 640.199219 105.347656 640.191406 109.929688 638.324219 117.304688 C 636.347656 125.09375 637.019531 135.292969 646.941406 136.949219 Z M 646.941406 136.949219 " fill-opacity="1" fill-rule="nonzero"/></g></g></g></g></g></g></svg>